<svg version="1.1" xmlns="http://www.w3.org/2000/svg" viewBox="0 0 694.076541781897 367.7316120355497" width="694.076541781897" height="367.7316120355497">
  <!-- svg-source:excalidraw -->
  
  <defs>
    <style class="style-fonts">
      @font-face {
        font-family: "Virgil";
        src: url("https://excalidraw.com/Virgil.woff2");
      }
      @font-face {
        font-family: "Cascadia";
        src: url("https://excalidraw.com/Cascadia.woff2");
      }
    </style>
  </defs>
  <g stroke-linecap="round" transform="translate(10 10) rotate(0 337.0382708909485 173.86580601777484)"><path d="M0 0 L674.08 0 L674.08 347.73 L0 347.73" stroke="none" stroke-width="0" fill="#ffffff"></path><path d="M0 0 C177.6 0, 355.21 0, 674.08 0 M0 0 C266.09 0, 532.17 0, 674.08 0 M674.08 0 C674.08 120.36, 674.08 240.73, 674.08 347.73 M674.08 0 C674.08 102.72, 674.08 205.45, 674.08 347.73 M674.08 347.73 C516.08 347.73, 358.08 347.73, 0 347.73 M674.08 347.73 C537.72 347.73, 401.36 347.73, 0 347.73 M0 347.73 C0 232.33, 0 116.92, 0 0 M0 347.73 C0 246.87, 0 146.01, 0 0" stroke="#000000" stroke-width="1" fill="none"></path></g><g stroke-linecap="round" transform="translate(28.632442768484452 64.75238522783343) rotate(0 133.5 77.09601746990745)"><path d="M1.04 1.41 C104.56 2.45, 209.31 0.71, 267.66 -1.23 M0.17 -0.51 C78.83 1.49, 155.91 0.5, 266.75 -0.76 M265.36 -1.95 C267.78 39.63, 264.78 75.6, 268.87 153.36 M267.94 0.19 C267.33 53.92, 267.95 109.81, 267.97 153.26 M266.25 154.61 C198.01 154.9, 130.08 155.94, 0.88 153.24 M267.39 154.68 C194.71 153.45, 123.79 154.53, 0.35 154.01 M-0.59 152.41 C2.34 114.22, 3.41 73.69, 1.83 1.93 M-0.46 154.47 C1.87 94.09, 1.42 32.02, -0.09 -0.85" stroke="#000000" stroke-width="1" fill="none"></path></g><g stroke-linecap="round" transform="translate(53.63244276848445 90.14078592123042) rotate(0 9.5 9.5)"><path d="M1.5 -1.32 L17.59 0.65 L17.84 18.6 L-0.82 18.18" stroke="none" stroke-width="0" fill="#40c057"></path><path d="M-0.01 -1.15 C5.4 -1.22, 9.34 0.8, 19.3 -0.2 M0.75 0.12 C4.22 0.56, 8.11 -0.51, 18.85 0.9 M19.62 -1.36 C18.99 5.86, 17.59 9.41, 20.57 18.38 M18.1 -0.21 C18.84 6.39, 19.27 11.17, 19.15 18.28 M19.15 17.2 C11.57 19.34, 6.62 19.97, 1.12 19.86 M19.07 19.04 C11.87 18.39, 6.14 18.42, -0.06 19.12 M1.53 20.52 C0.45 14.52, 1.96 7.64, -0.14 1.82 M-0.11 18.97 C-0.14 13.24, 1.03 8.36, 0.41 0.82" stroke="#000000" stroke-width="1" fill="none"></path></g><g stroke-linecap="round" transform="translate(54.29703918247799 132.33926125650777) rotate(0 9.5 9.5)"><path d="M0.64 1.46 L17.17 -0.45 L18.65 18.8 L-1.49 19.03" stroke="none" stroke-width="0" fill="#40c057"></path><path d="M0.52 -0.21 C5.58 -1.6, 10.91 1.7, 17.37 0.15 M-0.15 0.56 C4.46 0.38, 8.39 -0.09, 19.27 0.07 M20.79 -1.26 C18.83 6.02, 19.5 10.17, 19.07 20.53 M19.91 0.57 C18.96 8.13, 18.81 13.72, 19.02 18.89 M20.78 18.76 C14.18 20.53, 9.14 17.65, -1.34 19.62 M18.61 19.45 C14.63 18.99, 9.72 19.74, -0.73 19.86 M-0.53 20.28 C1.12 14.61, -1.01 6.02, -1.44 0.73 M0.29 18.79 C-0.51 10.74, 0.92 3.48, 0.39 0.31" stroke="#000000" stroke-width="1" fill="none"></path></g><g stroke-linecap="round" transform="translate(54.91575741862971 173.17466484251418) rotate(0 9.5 9.5)"><path d="M1.82 -0.44 C6.07 0.06, 14.83 -0.04, 18.43 -1 M0.82 0.71 C6.85 -0.75, 15.27 -0.63, 18.81 -0.39 M19.13 -0.16 C20.72 3.45, 20.81 10.12, 20.87 20.65 M19.8 -0.41 C18.62 4.45, 19.49 11.23, 19.03 18.39 M17.47 20.86 C11.65 19.69, 7.04 19.51, 1.39 17.26 M18.29 19.01 C14.25 19.57, 8.69 19.87, -0.84 19.02 M1.22 18.8 C-0.69 11.46, 0.96 2.02, 0.71 -1.15 M0.67 18.06 C-0.17 12.3, 0.36 4.65, -0.64 0.34" stroke="#000000" stroke-width="1" fill="none"></path></g><g transform="translate(87.30833215623926 89.55411178128838) rotate(0 51 10.5)"><text x="0" y="15" font-family="Virgil, Segoe UI Emoji" font-size="16px" fill="#000000" text-anchor="start" style="white-space: pre;" direction="ltr">Update docs</text></g><g transform="translate(86.75755135650758 131.8640872074269) rotate(0 77.99999999999997 10.5)"><text x="0" y="15" font-family="Virgil, Segoe UI Emoji" font-size="16px" fill="#000000" text-anchor="start" style="white-space: pre;" direction="ltr">Chat with designers</text></g><g transform="translate(87.3558446791389 173.2074292833912) rotate(0 90.00000000000003 10.5)"><text x="0" y="15" font-family="Virgil, Segoe UI Emoji" font-size="16px" fill="#000000" text-anchor="start" style="white-space: pre;" direction="ltr">Test new architecture</text></g><g stroke-linecap="round"><g transform="translate(56.38458103412495 143.84900995989102) rotate(0 7.685647067100774 -1.8294124687145654)"><path d="M0.23 -0.54 C1.55 1.25, 3.36 3.06, 4.04 4.45 M-0.07 0.18 C0.91 1.44, 2.17 2.55, 4.37 4.85 M5.07 3.27 C6.79 1.71, 10.95 -3.3, 15.21 -7.79 M4.41 4.9 C8.85 0.15, 12 -2.89, 15.44 -8.56" stroke="#000000" stroke-width="1" fill="none"></path></g></g><mask></mask><g transform="translate(44.41559392841708 28.930504991209716) rotate(0 28 13)"><text x="0" y="18" font-family="Virgil, Segoe UI Emoji" font-size="20px" fill="#000000" text-anchor="start" style="white-space: pre;" direction="ltr">Day 1</text></g><g stroke-linecap="round" transform="translate(384.5123429086551 63.72624649948193) rotate(0 133.5 77.09601746990745)"><path d="M1.07 -0.02 C92.26 -0.3, 186.93 0.89, 265.52 -0.26 M-0.25 0.27 C75.75 -1.69, 151.03 -1.41, 267.45 0.1 M267.6 0.22 C269.89 40.79, 267.85 77.02, 268.85 154.21 M267.4 0.55 C267.74 59.66, 267.38 119.09, 266.33 154.47 M267.17 155.14 C186.25 153.02, 106.17 151.62, -0.04 153.57 M266.27 153.63 C190.35 152.45, 114.08 152.59, -0.65 153.63 M-0.31 155.44 C-2.18 99.18, -0.29 48.2, -1.21 -0.23 M-0.72 155 C-1.53 111.49, -0.52 68.26, 0.4 0.08" stroke="#000000" stroke-width="1" fill="none"></path></g><g stroke-linecap="round" transform="translate(410.7956575588004 88.34655893586881) rotate(0 9.5 9.5)"><path d="M-1.15 0.13 C7.29 -1.64, 13.67 -0.16, 19.89 0.88 M-0.86 -0.88 C4.59 0.57, 10.33 -0.39, 19.62 0.44 M20.39 -0.15 C17.46 8.03, 19.04 14.18, 20.19 20.41 M19.1 -0.56 C19.07 5.82, 19.37 12.91, 18.69 18.53 M18.84 18.97 C11.24 18.91, 6.44 18.71, 1.03 18.04 M18.18 19.23 C14.42 18.19, 10.45 19.45, 0.58 19.01 M-1.08 19.62 C1.56 12.44, -0.33 7.75, 1.8 -0.02 M0.06 19.89 C-0.53 15.05, -0.08 10.01, -0.1 0.32" stroke="#000000" stroke-width="1" fill="none"></path></g><g transform="translate(443.2357448193096 88.37932337674584) rotate(0 90 10.5)"><text x="0" y="15" font-family="Virgil, Segoe UI Emoji" font-size="16px" fill="#000000" text-anchor="start" style="white-space: pre;" direction="ltr">Test new architecture</text></g><g transform="translate(400.2954940685878 27.215998895154314) rotate(0 32.5 13)"><text x="0" y="18" font-family="Virgil, Segoe UI Emoji" font-size="20px" fill="#000000" text-anchor="start" style="white-space: pre;" direction="ltr">Day 2</text></g><g stroke-linecap="round"><g transform="translate(305.9951936558741 142.87397751448873) rotate(0 32.25016397153786 1.0196580421179533)"><path d="M0.83 0.67 C24.8 1.37, 44.29 0.71, 65.32 1.98 M-0.82 0.68 C18.8 0.36, 37.2 0.15, 62.5 0.06" stroke="#000000" stroke-width="1" fill="none"></path></g><g transform="translate(305.9951936558741 142.87397751448873) rotate(0 32.25016397153786 1.0196580421179533)"><path d="M35.19 11.15 C46.31 8.23, 53.04 3.8, 64.49 2.04 M33.54 11.15 C42.55 7.91, 50.36 4.57, 61.66 0.12" stroke="#000000" stroke-width="1" fill="none"></path></g><g transform="translate(305.9951936558741 142.87397751448873) rotate(0 32.25016397153786 1.0196580421179533)"><path d="M35.08 -9.37 C46.41 -4.85, 53.18 -1.84, 64.49 2.04 M33.43 -9.37 C42.5 -6.44, 50.34 -3.6, 61.66 0.12" stroke="#000000" stroke-width="1" fill="none"></path></g></g><mask></mask><g transform="translate(104.44511954739147 278.14635934044395) rotate(0 90.99999999999997 20.5)"><text x="0" y="14.5" font-family="Virgil, Segoe UI Emoji" font-size="16px" fill="#000000" text-anchor="start" style="white-space: pre;" direction="ltr">Completed items remain</text><text x="0" y="35" font-family="Virgil, Segoe UI Emoji" font-size="16px" fill="#000000" text-anchor="start" style="white-space: pre;" direction="ltr">for the day</text></g><g stroke-linecap="round"><g transform="translate(133.88163927422193 266.84685357037404) rotate(0 -8.8165509576732 -18.611652207622853)"><path d="M0 0 C-6.24 -13.16, -12.47 -26.33, -17.63 -37.22 M0 0 C-6.77 -14.28, -13.53 -28.57, -17.63 -37.22" stroke="#000000" stroke-width="1" fill="none"></path></g><g transform="translate(133.88163927422193 266.84685357037404) rotate(0 -8.8165509576732 -18.611652207622853)"><path d="M-2.98 -22.75 C-8.16 -27.87, -13.34 -32.99, -17.63 -37.22 M-2.98 -22.75 C-8.6 -28.3, -14.23 -33.86, -17.63 -37.22" stroke="#000000" stroke-width="1" fill="none"></path></g><g transform="translate(133.88163927422193 266.84685357037404) rotate(0 -8.8165509576732 -18.611652207622853)"><path d="M-15.71 -16.72 C-16.39 -23.97, -17.07 -31.22, -17.63 -37.22 M-15.71 -16.72 C-16.45 -24.59, -17.19 -32.46, -17.63 -37.22" stroke="#000000" stroke-width="1" fill="none"></path></g></g><mask></mask><g transform="translate(472.347075535841 277.6482686468306) rotate(0 84 20.5)"><text x="0" y="14.5" font-family="Virgil, Segoe UI Emoji" font-size="16px" fill="#000000" text-anchor="start" style="white-space: pre;" direction="ltr">But are removed the</text><text x="0" y="35" font-family="Virgil, Segoe UI Emoji" font-size="16px" fill="#000000" text-anchor="start" style="white-space: pre;" direction="ltr">next day</text></g><g stroke-linecap="round"><g transform="translate(553.322177853919 264.3089009966072) rotate(0 11.19622748360149 -18.188660111995034)"><path d="M0 0 C4.89 -7.95, 9.79 -15.9, 22.39 -36.38 M0 0 C6.7 -10.89, 13.41 -21.78, 22.39 -36.38" stroke="#000000" stroke-width="1" fill="none"></path></g><g transform="translate(553.322177853919 264.3089009966072) rotate(0 11.19622748360149 -18.188660111995034)"><path d="M18.09 -15.46 C19.03 -20.03, 19.97 -24.6, 22.39 -36.38 M18.09 -15.46 C19.38 -21.72, 20.67 -27.98, 22.39 -36.38" stroke="#000000" stroke-width="1" fill="none"></path></g><g transform="translate(553.322177853919 264.3089009966072) rotate(0 11.19622748360149 -18.188660111995034)"><path d="M5.65 -23.11 C9.31 -26.01, 12.97 -28.91, 22.39 -36.38 M5.65 -23.11 C10.66 -27.09, 15.68 -31.06, 22.39 -36.38" stroke="#000000" stroke-width="1" fill="none"></path></g></g><mask></mask><g stroke-linecap="round"><g transform="translate(56.45892719285257 100.91748117777229) rotate(0 6.6837248449068625 -1.234637980406859)"><path d="M0.43 0.11 C1.24 0.96, 2.21 2.49, 3.73 4.36 M0.06 -0.12 C1.22 1.21, 2.33 2.3, 3.72 4.22 M3.91 5.16 C6.77 -0.31, 9.38 -3.28, 13.31 -7.63 M3.69 3.86 C7.72 0.06, 10.58 -3.86, 12.64 -7.43" stroke="#000000" stroke-width="1" fill="none"></path></g></g><mask></mask></svg>